/* XPM */
static char *result[] = {
/* columns rows colors chars-per-pixel */
"64 64 34 1 ",
"  c #030403",
". c #080707",
"X c #020801",
"o c #080806",
"O c #03020A",
"+ c #080708",
"@ c #0A0A0A",
"# c #050011",
"$ c #121212",
"% c #1C1C1C",
"& c gray13",
"* c #2C2C2C",
"= c #343434",
"- c #3C3C3C",
"; c #434343",
": c #4C4C4C",
"> c #525252",
", c gray35",
"< c #626262",
"1 c #6C6C6C",
"2 c #747474",
"3 c #7B7B7B",
"4 c gray56",
"5 c #929292",
"6 c #9A9A9A",
"7 c gray64",
"8 c #ADADAD",
"9 c #B4B4B4",
"0 c #BCBCBC",
"q c #C4C4C4",
"w c #CDCDCD",
"e c #D2D2D2",
"r c #DADADA",
"t c gray88",
/* pixels */
"+. O###O    XXOO OX   .... . . .. .XO  .O  .      OO..        .O",
".  O##OOO X   XOOO    .  .. O  . . .  .             .        ..O",
".  OO#OO X  X OOO      ...         . .            .O.        OOO",
".   OOO O  XO XOO                   .  .             .       OOO",
".   OOOO  + XXOOO                    .                .     OOOO",
"..  OOOO  X XO OO                     .             .      OOOOO",
"    OOO O   + OOOO                                      X   OOOO",
".   OOOO  X+ + OO                                          OOOOO",
"     O OO+OX XOOO                                      X    OOOO",
"    OOO XXX XO OOO                                         OO OO",
".  OOO OO   X  OO                                        X   O  ",
" . OOOOOXXXXXX  .                                        OOO    ",
"   .O#O     XX OO                                         O O   ",
".  O#OOO  X     O                                       OOXO    ",
".  OOOOO   XX  O.  .   .                                   O    ",
".  OOOO    X X  .                   O                    OOO   X",
".  OO#O.    X   O               X   . .        O         OOOX   ",
".  OOOOOX X X  OO             . O . ...      .             O    ",
"O  .OOO    XXX             .  .. . +. . .   .            O      ",
"   OOOOO       OO           O.  X. ..                   O OO   X",
".  OO#OO  X X   .  .         . .O  ..        OX           O O   ",
".  O#OOO   XXX  .        XO   .O                        OOXO    ",
"O  OOOO     XX OO        .  .       ..O      .             O   X",
"  OOOOO   X X X O     .......        ..      ..          OOO    ",
".  .O#OOX  XX OOOO   ..    @.  . .. .    .. ..+.         OOO  X ",
"O  O#OO+ X XXXXO    ...   .$@ .@$@$@@.   o@. @+.          XO    ",
"   OO#O  XX XX  .   . .@@. ...%=-;;-*%$@ .@@@.            OO    ",
"O   OOOO   XX+  O  .   @$.  @$;12331>-*% O@@@   .        OO     ",
"   OOOO.X  XX  O.. .   $$.  &;380qq961-%.. X.@..        O  O X  ",
"   .#OOOX X XX  O.  .  @$..$-17erttrq4>*@@O  @@@.        XOOO   ",
".   OOOOO XXX  OO   .     @*<7qrwqwwr82-$@  .$$@         OO  X  ",
"O  O##O+X X  X  O   .     $*19qew0qer05:$@...@@.           OO   ",
"   O##O   X XXX .  . ...  $*10qwqqweeq9, .@@@.           OOOX   ",
"O  OOOOOXX XXXOO.  . .....@&,8qeeewww07: O@@o     .        O    ",
"   O#OO OXX X XOO.. . ..@.@$>70rrrwww95;  .@.   .o.      O      ",
"  O+O#OO  XXXXXOO. . ..@@ ..-37qwwq005,*  XO.@.  .      O OO   X",
"O  O#OO XX XX  OO      @@   &:2678875<*$   X.@@.         OOOO   ",
"    #OOO  X XXOXO      @@@  @%=;::>:;=$@++++...@           O    ",
".  OOOOO   XX XO..     o@.OX  .$$$%%%@O @@o+...@        O  X   X",
"O  OOOO   XXXX  .      O.      ..@@oo. . .o..  .       OXOO     ",
".  OO#OO XXXXXXOO       XO      X        . .. O    OO  OO O  X  ",
".  OOOO    XX O       ....   . .O       ..O..         O  OX     ",
"   .OOO  XX X   O      ..   ..    .       .  .       O OOOX     ",
".  OOOO    XXX O      . ..oO. ......    .. ...     O  O   O     ",
".  O##OO XXXXXXO             .  . O        .          OO  XO  X ",
".  OOOOO   XXX  O                       . .  .          OO      ",
"O OOOO   XXXX O                                      O O        ",
".  OOOOO  XXX   O                                        O      ",
" . O#OO    XXXOOO                                       O  X    ",
".  OOOOO XX XXX                                        O  O     ",
".  .OOO  X XXXO O                                               ",
".  OOOOO  XXXXXO                                        O OX    ",
"O  OOO   XXXXOXO        .                                X      ",
".  .OOOO   XXX  O   . .                                  O      ",
".  O##O   XXX  O.       .                               XO O    ",
".  OOOOO XXXXX      .      .                            OX      ",
".  OOOO    XXXOOO                                     .XX   OX  ",
".  OOOOO  XXXX           .   . O                        X X++X  ",
"O  OOO    X XXXOO          ..      O                  X O  OO  X",
". OOO#OO XXXXXXO          .         .                .  X   X   ",
".  OO#O    XXXOOO     ...             .                X XXOO   ",
".  .O#OO  XXX X      ..@.         ..     . .             OXXX   ",
".  OOOOO XXXX O O     oo.           . .                XX  OO   ",
".  OOO    XXXX       .o..O       ... O .  .             XOXOX   "
};
